<svg preserveAspectRatio="none" overflow="visible" style="display: block;" width="18" height="18" viewBox="0 0 18 18" fill="none" xmlns="http://www.w3.org/2000/svg">
<g id="icon/pin">
<path id="Vector" d="M9 15.75C9 15.75 3.75 11.1 3.75 7.5C3.75 6.10761 4.30312 4.77226 5.28769 3.78769C6.27226 2.80312 7.60761 2.25 9 2.25C10.3924 2.25 11.7277 2.80312 12.7123 3.78769C13.6969 4.77226 14.25 6.10761 14.25 7.5C14.25 11.1 9 15.75 9 15.75Z" stroke="#3A2317" stroke-width="1.125" stroke-linecap="round" stroke-linejoin="round"/>
<path id="Vector_2" d="M9 9.375C10.0355 9.375 10.875 8.53553 10.875 7.5C10.875 6.46447 10.0355 5.625 9 5.625C7.96447 5.625 7.125 6.46447 7.125 7.5C7.125 8.53553 7.96447 9.375 9 9.375Z" stroke="#3A2317" stroke-width="1.125" stroke-linecap="round" stroke-linejoin="round"/>
</g>
</svg>
